<?xml version="1.0" encoding="UTF-8"?> <!-- Generator: Adobe Illustrator 24.1.0, SVG Export Plug-In . SVG Version: 6.00 Build 0) --> <svg xmlns="http://www.w3.org/2000/svg" xmlns:xlink="http://www.w3.org/1999/xlink" id="Слой_1" x="0px" y="0px" viewBox="0 0 35 35" style="enable-background:new 0 0 35 35;" xml:space="preserve"> <style type="text/css"> .st0{fill:#FFFFFF;} </style> <path d="M17.5,35C27.165001,35,35,27.165001,35,17.5C35,7.83502,27.165001,0,17.5,0C7.83502,0,0,7.83502,0,17.5 C0,27.165001,7.83502,35,17.5,35z"></path> <g> <path class="st0" d="M26.003277,13.978141c-0.040052-0.908417-0.186953-1.532945-0.39739-2.074107 c-0.217091-0.57443-0.551077-1.088717-0.988651-1.516245c-0.427528-0.434182-0.945208-0.771561-1.512985-0.98526 c-0.544292-0.210438-1.16556-0.357339-2.073977-0.397391c-0.915199-0.043445-1.205742-0.05349-3.526947-0.05349 s-2.611746,0.010045-3.523555,0.050097c-0.908417,0.040052-1.532945,0.187084-2.073977,0.397391 c-0.574561,0.217092-1.088847,0.551078-1.516376,0.988652c-0.434182,0.427528-0.77143,0.945207-0.98526,1.512983 c-0.210438,0.544424-0.357339,1.16556-0.397391,2.073977c-0.043445,0.915201-0.05349,1.205743-0.05349,3.526947 s0.010045,2.611748,0.050097,3.523556c0.040052,0.908417,0.187084,1.532946,0.397522,2.074106 c0.217091,0.57443,0.554338,1.088718,0.988522,1.516247c0.427528,0.434181,0.945207,0.771561,1.512983,0.985258 c0.544424,0.210438,1.16556,0.35734,2.074107,0.397392c0.911678,0.040182,1.202351,0.050098,3.523555,0.050098 s2.611748-0.009916,3.523556-0.050098c0.908417-0.040052,1.532946-0.186954,2.073977-0.397392 c1.148991-0.444227,2.057407-1.352644,2.501635-2.501505c0.210308-0.544424,0.35734-1.165689,0.397392-2.074106 c0.040052-0.911808,0.050098-1.202351,0.050098-3.523556S26.043329,14.88995,26.003277,13.978141z M24.463678,20.958454 c-0.036791,0.834965-0.177038,1.285847-0.293934,1.586435c-0.287279,0.744814-0.87841,1.335945-1.623224,1.623224 c-0.300589,0.116896-0.754732,0.257143-1.586435,0.293804c-0.901764,0.040182-1.172215,0.050098-3.453365,0.050098 s-2.554996-0.009916-3.453497-0.050098c-0.834966-0.036661-1.285848-0.176908-1.586435-0.293804 c-0.370646-0.136986-0.708024-0.354076-0.981867-0.637966c-0.283889-0.277233-0.500979-0.611219-0.637966-0.981867 c-0.116896-0.300587-0.257143-0.754862-0.293803-1.586435c-0.040183-0.901762-0.050098-1.172344-0.050098-3.453495 s0.009915-2.554996,0.050098-3.453366c0.03666-0.834966,0.176908-1.285848,0.293803-1.586435 c0.136987-0.370777,0.354077-0.708025,0.641358-0.981997c0.277103-0.283889,0.61109-0.500979,0.981867-0.637836 c0.300588-0.116896,0.754861-0.257144,1.586435-0.293934c0.901763-0.040052,1.172343-0.050098,3.453366-0.050098 c2.284544,0,2.554995,0.010046,3.453495,0.050098c0.834967,0.03679,1.285849,0.177038,1.586435,0.293934 c0.370647,0.136856,0.708025,0.353947,0.981867,0.637836c0.28389,0.277234,0.50098,0.61122,0.637966,0.981997 c0.116896,0.300588,0.257143,0.754731,0.293934,1.586435c0.040052,0.901763,0.050098,1.172214,0.050098,3.453366 S24.503731,20.05669,24.463678,20.958454z"></path> <path class="st0" d="M17.503326,13.109776c-2.424662,0-4.391919,1.967127-4.391919,4.391919s1.967257,4.39192,4.391919,4.39192 c2.424793,0,4.39192-1.967127,4.39192-4.39192S19.92812,13.109776,17.503326,13.109776z M17.503326,20.350626 c-1.572997,0-2.848928-1.275803-2.848928-2.84893s1.275931-2.848928,2.848928-2.848928 c1.573128,0,2.84893,1.275802,2.84893,2.848928S19.076454,20.350626,17.503326,20.350626z"></path> <path class="st0" d="M23.094336,12.93613c0,0.566212-0.459101,1.025311-1.025442,1.025311 c-0.566212,0-1.025312-0.4591-1.025312-1.025311c0-0.566341,0.459101-1.025311,1.025312-1.025311 C22.635235,11.910818,23.094336,12.369788,23.094336,12.93613z"></path> </g> </svg> 