<?xml version="1.0" encoding="UTF-8"?> <svg xmlns="http://www.w3.org/2000/svg" width="35" height="35" viewBox="0 0 35 35" fill="none"> <path d="M17.5 35C27.165 35 35 27.165 35 17.5C35 7.83502 27.165 0 17.5 0C7.83502 0 0 7.83502 0 17.5C0 27.165 7.83502 35 17.5 35Z" fill="black"></path> <path d="M7.88003 16.4465L24.6413 9.88017C25.4192 9.59461 26.0986 10.073 25.8466 11.2682L25.848 11.2667L22.9941 24.9278C22.7826 25.8963 22.2162 26.1318 21.4237 25.6755L17.0777 22.4211L14.9815 24.473C14.7497 24.7085 14.5541 24.9072 14.105 24.9072L14.4136 20.4134L22.4682 13.0198C22.8188 12.7063 22.39 12.5297 21.9279 12.8417L11.974 19.2093L7.68301 17.8492C6.75151 17.549 6.73123 16.9028 7.88003 16.4465Z" fill="white"></path> </svg> 