<?xml version="1.0" encoding="UTF-8"?> <svg xmlns="http://www.w3.org/2000/svg" width="35" height="35" viewBox="0 0 35 35" fill="none"> <path d="M17.4999 0C27.1655 0 35 7.83562 35 17.5001C35 27.1656 27.1655 35 17.4999 35C7.83442 35 0 27.1655 0 17.5001C0 7.83562 7.83454 0 17.4999 0Z" fill="black"></path> <path d="M28.4407 11.7898C27.6763 12.1201 26.8537 12.3421 25.9908 12.4428C26.8724 11.9298 27.5483 11.1193 27.8666 10.1514C27.0419 10.6272 26.1297 10.9718 25.1574 11.1565C24.3797 10.3527 23.2717 9.85059 22.0446 9.85059C19.6908 9.85059 17.7812 11.7024 17.7812 13.9882C17.7812 14.3131 17.8184 14.6292 17.8916 14.9322C14.3478 14.7594 11.2044 13.111 9.10226 10.6075C8.73474 11.2189 8.52473 11.9287 8.52473 12.6878C8.52473 14.1228 9.27719 15.3915 10.4213 16.132C9.72136 16.1102 9.06501 15.9253 8.48869 15.6136V15.6661C8.48869 17.672 9.95864 19.3444 11.9099 19.725C11.5522 19.8191 11.1759 19.8705 10.7865 19.8705C10.512 19.8705 10.2452 19.8454 9.98483 19.7962C10.5273 21.4412 12.1024 22.6377 13.9694 22.6706C12.5093 23.7818 10.6706 24.4425 8.67239 24.4425C8.32782 24.4425 7.98877 24.4228 7.65405 24.3846C9.54294 25.5592 11.783 26.245 14.1925 26.245C22.0369 26.245 26.3266 19.9362 26.3266 14.4674L26.3146 13.9315C27.1457 13.3495 27.8687 12.6211 28.4407 11.7898Z" fill="white"></path> </svg> 