<?xml version="1.0" encoding="UTF-8"?> <svg xmlns="http://www.w3.org/2000/svg" width="35" height="35" viewBox="0 0 35 35" fill="none"> <path d="M17.5 35C27.165 35 35 27.165 35 17.5C35 7.83502 27.165 0 17.5 0C7.83502 0 0 7.83502 0 17.5C0 27.165 7.83502 35 17.5 35Z" fill="black"></path> <path fill-rule="evenodd" clip-rule="evenodd" d="M24.1457 21.8306C23.6388 21.4225 23.097 21.0561 22.5637 20.6819C21.5001 19.9349 20.5272 19.8768 19.7336 21.0787C19.2879 21.7534 18.664 21.783 18.0116 21.4869C16.2131 20.6715 14.8244 19.415 14.0109 17.587C13.651 16.7783 13.6558 16.0532 14.4977 15.4812C14.9435 15.1787 15.3926 14.8208 15.3567 14.1598C15.3098 13.2979 13.2172 10.4177 12.3908 10.1137C12.0489 9.98791 11.7084 9.9961 11.3605 10.113C9.42279 10.7646 8.6202 12.3582 9.38884 14.2451C11.6819 19.8746 15.7173 23.7936 21.2723 26.1856C21.589 26.3218 21.9408 26.3762 22.1189 26.4251C23.3836 26.4378 24.8652 25.2193 25.293 24.0101C25.705 22.8467 24.8344 22.385 24.1457 21.8306ZM17.9172 10.6909C21.9783 11.3154 23.8512 13.2464 24.3683 17.3367C24.4163 17.7145 24.2755 18.283 24.8146 18.2935C25.3779 18.3042 25.2422 17.7441 25.2469 17.3659C25.2946 13.5137 21.9356 9.94244 18.0347 9.81077C17.7404 9.85312 17.1314 9.60781 17.0934 10.2675C17.0681 10.7122 17.5808 10.6391 17.9172 10.6909Z" fill="white"></path> <path fill-rule="evenodd" clip-rule="evenodd" d="M18.7117 11.8133C18.3211 11.7662 17.8054 11.5822 17.7141 12.1242C17.6188 12.693 18.1936 12.6353 18.5628 12.7179C21.071 13.2785 21.9444 14.1914 22.3573 16.6794C22.4177 17.0421 22.2978 17.6067 22.9143 17.5131C23.3711 17.4435 23.2061 16.9596 23.2443 16.6769C23.2645 14.2883 21.2177 12.1142 18.7117 11.8133Z" fill="white"></path> <path fill-rule="evenodd" clip-rule="evenodd" d="M18.9418 13.766C18.6811 13.7725 18.4252 13.8007 18.3294 14.0794C18.1854 14.4958 18.4882 14.5951 18.7964 14.6446C19.8253 14.8098 20.3668 15.4165 20.4696 16.4425C20.4974 16.721 20.6741 16.9466 20.9431 16.9149C21.3159 16.8704 21.3496 16.5386 21.3381 16.2235C21.3566 15.0708 20.0537 13.7384 18.9418 13.766Z" fill="white"></path> </svg> 