<?xml version="1.0" encoding="UTF-8"?> <svg xmlns="http://www.w3.org/2000/svg" width="35" height="35" viewBox="0 0 35 35" fill="none"> <path d="M17.5 35C27.165 35 35 27.165 35 17.5C35 7.83502 27.165 0 17.5 0C7.83502 0 0 7.83502 0 17.5C0 27.165 7.83502 35 17.5 35Z" fill="black"></path> <path d="M24.5462 11.147C22.7696 9.37677 20.4068 8.40139 17.8893 8.40039C12.7024 8.40039 8.48088 12.6014 8.47881 17.7652C8.47814 19.4158 8.91147 21.027 9.73496 22.4472L8.3999 27.3004L13.3886 25.9981C14.7631 26.7441 16.3106 27.1373 17.8856 27.138H17.8895C23.0759 27.138 27.2978 22.9365 27.2999 17.7726C27.3009 15.2702 26.323 12.9172 24.5462 11.147ZM17.8895 25.5563H17.8863C16.4828 25.5557 15.1062 25.1805 13.9053 24.4713L13.6197 24.3026L10.6593 25.0754L11.4495 22.203L11.2635 21.9084C10.4805 20.6691 10.067 19.2366 10.0676 17.7658C10.0693 13.4739 13.5781 9.98214 17.8925 9.98214C19.9816 9.98294 21.9455 10.7937 23.4222 12.265C24.899 13.7363 25.7118 15.6921 25.711 17.7721C25.7093 22.0643 22.2005 25.5563 17.8895 25.5563ZM22.1798 19.7264C21.9446 19.6092 20.7886 19.0431 20.5731 18.965C20.3575 18.8869 20.2008 18.8479 20.044 19.0822C19.8873 19.3164 19.4367 19.8435 19.2995 19.9997C19.1623 20.1559 19.0251 20.1754 18.79 20.0583C18.5549 19.9411 17.7972 19.694 16.8991 18.8968C16.2001 18.2764 15.7282 17.51 15.591 17.2757C15.4539 17.0414 15.5765 16.9148 15.6942 16.7981C15.7999 16.6932 15.9293 16.5248 16.0469 16.3881C16.1644 16.2515 16.2036 16.1538 16.282 15.9977C16.3604 15.8415 16.3212 15.7048 16.2624 15.5877C16.2036 15.4706 15.7334 14.3188 15.5374 13.8502C15.3466 13.3939 15.1527 13.4557 15.0083 13.4485C14.8713 13.4417 14.7144 13.4403 14.5577 13.4403C14.401 13.4403 14.1462 13.4988 13.9307 13.7331C13.7152 13.9674 13.1077 14.5335 13.1077 15.6853C13.1077 16.8371 13.9503 17.9499 14.0678 18.106C14.1854 18.2622 15.7259 20.6259 18.0846 21.6395C18.6456 21.8806 19.0836 22.0246 19.4251 22.1325C19.9884 22.3105 20.501 22.2854 20.9062 22.2252C21.3579 22.158 22.2973 21.6591 22.4933 21.1125C22.6892 20.5658 22.6892 20.0973 22.6304 19.9997C22.5716 19.9021 22.4149 19.8435 22.1798 19.7264Z" fill="white"></path> </svg> 